Normalized EMG Linear Envelopes
nRows=240
nColumns=4

endheader
time	 med_gas_r	  soleus_r	 tib_ant_r	
2.29536	  0.008587	  0.010230	  0.041592	
2.32863	  0.008412	  0.010874	  0.042357	
2.3619	  0.008286	  0.011555	  0.043246	
2.39516	  0.008212	  0.012326	  0.044276	
2.42843	  0.008189	  0.013136	  0.045324	
2.46169	  0.008219	  0.013830	  0.046200	
2.49496	  0.008296	  0.014201	  0.046731	
2.52823	  0.008397	  0.014102	  0.046816	
2.56149	  0.008460	  0.013539	  0.046422	
2.59476	  0.008412	  0.012668	  0.045576	
2.62802	  0.008208	  0.011717	  0.044361	
2.66129	  0.007869	  0.010890	  0.042900	
2.69456	  0.007476	  0.010312	  0.041300	
2.72782	  0.007135	  0.010023	  0.039601	
2.76109	  0.006935	  0.009993	  0.037789	
2.79435	  0.006920	  0.010141	  0.035896	
2.82762	  0.007091	  0.010363	  0.034092	
2.86089	  0.007402	  0.010555	  0.032661	
2.89415	  0.007774	  0.010647	  0.031867	
2.92742	  0.008112	  0.010619	  0.031825	
2.96069	  0.008339	  0.010501	  0.032489	
2.99395	  0.008425	  0.010339	  0.033709	
3.02722	  0.008388	  0.010167	  0.035256	
3.06048	  0.008269	  0.009989	  0.036829	
3.09375	  0.008101	  0.009795	  0.038115	
3.12702	  0.007895	  0.009572	  0.038918	
3.16028	  0.007649	  0.009323	  0.039244	
3.19355	  0.007380	  0.009055	  0.039245	
3.22681	  0.007132	  0.008784	  0.039089	
3.26008	  0.006968	  0.008531	  0.038860	
3.29335	  0.006941	  0.008324	  0.038582	
3.32661	  0.007068	  0.008194	  0.038267	
3.35988	  0.007339	  0.008179	  0.037947	
3.39315	  0.007733	  0.008314	  0.037630	
3.42641	  0.008237	  0.008626	  0.037247	
3.45968	  0.008839	  0.009116	  0.036694	
3.49294	  0.009506	  0.009730	  0.035944	
3.52621	  0.010155	  0.010347	  0.035124	
3.55948	  0.010664	  0.010805	  0.034446	
3.59274	  0.010920	  0.010971	  0.034066	
3.62601	  0.010868	  0.010804	  0.034014	
3.65927	  0.010537	  0.010381	  0.034248	
3.69254	  0.010006	  0.009855	  0.034758	
3.72581	  0.009374	  0.009368	  0.035583	
3.75907	  0.008732	  0.009004	  0.036795	
3.79234	  0.008152	  0.008778	  0.038469	
3.8256	  0.007687	  0.008667	  0.040648	
3.85887	  0.007364	  0.008643	  0.043269	
3.89214	  0.007176	  0.008694	  0.046075	
3.9254	  0.007095	  0.008818	  0.048662	
3.95867	  0.007076	  0.009030	  0.050643	
3.99194	  0.007081	  0.009352	  0.051822	
4.0252	  0.007087	  0.009812	  0.052230	
4.05847	  0.007097	  0.010424	  0.052009	
4.09173	  0.007127	  0.011158	  0.051288	
4.125	  0.007200	  0.011906	  0.050143	
4.15827	  0.007324	  0.012488	  0.048611	
4.19153	  0.007494	  0.012703	  0.046715	
4.2248	  0.007690	  0.012437	  0.044494	
4.25806	  0.007885	  0.011731	  0.042078	
4.29133	  0.008053	  0.010778	  0.039814	
4.3246	  0.008185	  0.009861	  0.038378	
4.35786	  0.008305	  0.009273	  0.038802	
4.39113	  0.008480	  0.009298	  0.042380	
4.4244	  0.008828	  0.010217	  0.050477	
4.45766	  0.009497	  0.012319	  0.064246	
4.49093	  0.010636	  0.015878	  0.084234	
4.52419	  0.012336	  0.021054	  0.109884	
4.55746	  0.014562	  0.027741	  0.139182	
4.59073	  0.017114	  0.035446	  0.168889	
4.62399	  0.019674	  0.043353	  0.195603	
4.65726	  0.021933	  0.050596	  0.217157	
4.69052	  0.023718	  0.056586	  0.233354	
4.72379	  0.025032	  0.061159	  0.245434	
4.75706	  0.025981	  0.064444	  0.254650	
4.79032	  0.026668	  0.066643	  0.261123	
4.82359	  0.027148	  0.067929	  0.263856	
4.85685	  0.027445	  0.068502	  0.261843	
4.89012	  0.027585	  0.068660	  0.255287	
4.92339	  0.027602	  0.068774	  0.245921	
4.95665	  0.027548	  0.069220	  0.236261	
4.98992	  0.027496	  0.070315	  0.228483	
5.02319	  0.027538	  0.072290	  0.223832	
5.05645	  0.027752	  0.075216	  0.222791	
5.08972	  0.028146	  0.078889	  0.225560	
5.12298	  0.028638	  0.082779	  0.232300	
5.15625	  0.029095	  0.086170	  0.243039	
5.18952	  0.029425	  0.088453	  0.257490	
5.22278	  0.029648	  0.089432	  0.274928	
5.25605	  0.029887	  0.089391	  0.294061	
5.28931	  0.030284	  0.088900	  0.312942	
5.32258	  0.030908	  0.088484	  0.329251	
5.35585	  0.031719	  0.088423	  0.341114	
5.38911	  0.032618	  0.088767	  0.348021	
5.42238	  0.033511	  0.089509	  0.351135	
5.45565	  0.034366	  0.090708	  0.352816	
5.48891	  0.035222	  0.092474	  0.355886	
5.52218	  0.036177	  0.094902	  0.363041	
5.55544	  0.037363	  0.098029	  0.376229	
5.58871	  0.038885	  0.101840	  0.395831	
5.62198	  0.040742	  0.106229	  0.420182	
5.65524	  0.042783	  0.110982	  0.446290	
5.68851	  0.044756	  0.115850	  0.471566	
5.72177	  0.046441	  0.120758	  0.495109	
5.75504	  0.047754	  0.125914	  0.517250	
5.78831	  0.048768	  0.131626	  0.537887	
5.82157	  0.049644	  0.137899	  0.555556	
5.85484	  0.050518	  0.144204	  0.568372	
5.8881	  0.051423	  0.149702	  0.575814	
5.92137	  0.052268	  0.153754	  0.579284	
5.95464	  0.052878	  0.156246	  0.580743	
5.9879	  0.053074	  0.157472	  0.580813	
6.02117	  0.052755	  0.157719	  0.578211	
6.05444	  0.051914	  0.156945	  0.570867	
6.0877	  0.050605	  0.154822	  0.557525	
6.12097	  0.048896	  0.151131	  0.538531	
6.15423	  0.046890	  0.146198	  0.515580	
6.1875	  0.044797	  0.141022	  0.490998	
6.22077	  0.042955	  0.136925	  0.467143	
6.25403	  0.041725	  0.134953	  0.446082	
6.2873	  0.041321	  0.135493	  0.429435	
6.32056	  0.041699	  0.138304	  0.418188	
6.35383	  0.042598	  0.142738	  0.412423	
6.3871	  0.043693	  0.147881	  0.411001	
6.42036	  0.044722	  0.152579	  0.411448	
6.45363	  0.045539	  0.155592	  0.410435	
6.4869	  0.046079	  0.155979	  0.405004	
6.52016	  0.046308	  0.153501	  0.393994	
6.55343	  0.046204	  0.148712	  0.378647	
6.58669	  0.045774	  0.142641	  0.361875	
6.61996	  0.045083	  0.136328	  0.346769	
6.65323	  0.044241	  0.130536	  0.335490	
6.68649	  0.043364	  0.125756	  0.329107	
6.71976	  0.042534	  0.122333	  0.328051	
6.75302	  0.041812	  0.120505	  0.332448	
6.78629	  0.041263	  0.120302	  0.342001	
6.81956	  0.040949	  0.121457	  0.355713	
6.85282	  0.040877	  0.123443	  0.371887	
6.88609	  0.040970	  0.125620	  0.388506	
6.91935	  0.041099	  0.127413	  0.403706	
6.95262	  0.041172	  0.128467	  0.416101	
6.98589	  0.041203	  0.128749	  0.424882	
7.01915	  0.041288	  0.128530	  0.429764	
7.05242	  0.041530	  0.128199	  0.430870	
7.08569	  0.041981	  0.128007	  0.428574	
7.11895	  0.042626	  0.127899	  0.423340	
7.15222	  0.043376	  0.127547	  0.415676	
7.18548	  0.044067	  0.126550	  0.406253	
7.21875	  0.044482	  0.124652	  0.396054	
7.25202	  0.044410	  0.121836	  0.386200	
7.28528	  0.043744	  0.118282	  0.377451	
7.31855	  0.042522	  0.114266	  0.369773	
7.35181	  0.040903	  0.110090	  0.362459	
7.38508	  0.039103	  0.106056	  0.354765	
7.41835	  0.037339	  0.102464	  0.346524	
7.45161	  0.035812	  0.099610	  0.338268	
7.48488	  0.034705	  0.097744	  0.330845	
7.51815	  0.034165	  0.096957	  0.324939	
7.55141	  0.034247	  0.097072	  0.320930	
7.58468	  0.034853	  0.097676	  0.319143	
7.61794	  0.035735	  0.098323	  0.320174	
7.65121	  0.036593	  0.098722	  0.324867	
7.68448	  0.037210	  0.098721	  0.333776	
7.71774	  0.037548	  0.098153	  0.346372	
7.75101	  0.037708	  0.096791	  0.360575	
7.78427	  0.037804	  0.094530	  0.373102	
7.81754	  0.037869	  0.091613	  0.380654	
7.85081	  0.037865	  0.088633	  0.381325	
7.88407	  0.037787	  0.086248	  0.375399	
7.91734	  0.037720	  0.084801	  0.365099	
7.9506	  0.037796	  0.084142	  0.353565	
7.98387	  0.038068	  0.083764	  0.343681	
8.01714	  0.038441	  0.083155	  0.337238	
8.0504	  0.038698	  0.082124	  0.334541	
8.08367	  0.038627	  0.080922	  0.334452	
8.11694	  0.038129	  0.080064	  0.334947	
8.1502	  0.037266	  0.080009	  0.334147	
8.18347	  0.036230	  0.080923	  0.331380	
8.21673	  0.035263	  0.082687	  0.327502	
8.25	  0.034543	  0.085078	  0.324136	
8.28327	  0.034120	  0.087935	  0.322359	
8.31653	  0.033920	  0.091186	  0.321941	
8.3498	  0.033843	  0.094797	  0.321734	
8.38306	  0.033843	  0.098675	  0.320806	
8.41633	  0.033937	  0.102565	  0.319292	
8.4496	  0.034140	  0.105987	  0.318250	
8.48286	  0.034415	  0.108339	  0.318723	
8.51613	  0.034692	  0.109199	  0.320810	
8.5494	  0.034931	  0.108603	  0.323479	
8.58266	  0.035141	  0.107042	  0.325261	
8.61593	  0.035345	  0.105134	  0.325303	
8.64919	  0.035526	  0.103256	  0.323966	
8.68246	  0.035640	  0.101415	  0.322566	
8.71573	  0.035663	  0.099401	  0.322552	
8.74899	  0.035650	  0.097045	  0.324812	
8.78226	  0.035717	  0.094405	  0.329447	
8.81552	  0.035964	  0.091807	  0.335842	
8.84879	  0.036398	  0.089734	  0.342716	
8.88206	  0.036916	  0.088603	  0.348258	
8.91532	  0.037378	  0.088532	  0.350717	
8.94859	  0.037698	  0.089262	  0.349380	
8.98185	  0.037873	  0.090303	  0.345249	
9.01512	  0.037940	  0.091204	  0.340583	
9.04839	  0.037907	  0.091728	  0.337345	
9.08165	  0.037728	  0.091838	  0.335549	
9.11492	  0.037322	  0.091586	  0.332720	
9.14819	  0.036629	  0.091074	  0.324953	
9.18145	  0.035637	  0.090514	  0.308869	
9.21472	  0.034383	  0.090300	  0.283193	
9.24798	  0.032958	  0.091016	  0.249088	
9.28125	  0.031514	  0.093436	  0.209420	
9.31452	  0.030245	  0.098395	  0.167725	
9.34778	  0.029316	  0.106410	  0.127443	
9.38105	  0.028746	  0.117104	  0.091416	
9.41431	  0.028382	  0.128893	  0.061534	
9.44758	  0.027980	  0.139387	  0.038565	
9.48085	  0.027352	  0.146391	  0.022277	
9.51411	  0.026442	  0.148809	  0.011772	
9.54738	  0.025288	  0.146874	  0.005852	
9.58065	  0.023954	  0.141667	  0.003258	
9.61391	  0.022487	  0.134358	  0.002815	
9.64718	  0.020919	  0.125567	  0.003516	
9.68044	  0.019270	  0.115163	  0.004596	
9.71371	  0.017544	  0.102618	  0.005558	
9.74698	  0.015736	  0.087723	  0.006170	
9.78024	  0.013874	  0.071141	  0.006394	
9.81351	  0.012044	  0.054346	  0.006314	
9.84677	  0.010377	  0.039011	  0.006048	
9.88004	  0.008999	  0.026329	  0.005703	
9.91331	  0.007977	  0.016728	  0.005343	
9.94657	  0.007307	  0.010022	  0.004996	
9.97984	  0.006933	  0.005727	  0.004672	
10.0131	  0.006784	  0.003304	  0.004381	
10.0464	  0.006798	  0.002245	  0.004136	
10.0796	  0.006932	  0.002101	  0.003955	
10.1129	  0.007148	  0.002499	  0.003852	
10.1462	  0.007413	  0.003171	  0.003830	
10.1794	  0.007691	  0.003952	  0.003881	
10.2127	  0.007955	  0.004750	  0.003987	
10.246	  0.008190	  0.005490	  0.004125	
